<svg width="20" height="20" viewBox="0 0 20 20" fill="none" xmlns="http://www.w3.org/2000/svg">
<g clip-path="url(#clip0)">
<path d="M8.15279 19.6003C8.68575 20.1332 9.54965 20.1332 10.0824 19.6003L10.5648 19.1181L7.18796 15.7411L5.74097 17.1885L8.15279 19.6003Z" fill="#898890"/>
<path d="M5.74097 17.1885L7.18796 15.7411L5.74097 17.1885Z" fill="#FFCD00"/>
<path d="M17.5179 1.89352C16.3044 0.675702 14.6543 -0.0059871 12.935 8.70223e-06C12.7466 8.70223e-06 12.5939 0.152735 12.5939 0.341103C12.5939 0.529471 12.7466 0.682198 12.935 0.682198C14.4724 0.680199 15.9473 1.28994 17.0344 2.37701C18.1215 3.46408 18.7312 4.93905 18.7292 6.47648C18.7292 6.66484 18.882 6.81757 19.0703 6.81757C19.2587 6.81757 19.4114 6.66484 19.4114 6.47648C19.4174 4.75718 18.7357 3.107 17.5179 1.89352Z" fill="#FF5023"/>
<path d="M15.5884 3.823C16.2941 4.52567 16.6903 5.48084 16.6894 6.47681C16.6894 6.66518 16.8422 6.81791 17.0305 6.81791C17.2189 6.81791 17.3716 6.66518 17.3716 6.47681C17.3675 4.02952 15.3845 2.04657 12.9374 2.04257C12.749 2.04257 12.5963 2.1953 12.5963 2.38367C12.5963 2.57204 12.749 2.72476 12.9374 2.72476C13.9319 2.72393 14.8857 3.11915 15.5884 3.823Z" fill="#FF5023"/>
<path d="M6.70581 2.71696L8.15297 1.26981L12.9768 6.0936L11.5296 7.54075L6.70581 2.71696Z" fill="#1CB7F1"/>
<path d="M11.5294 7.54072L12.9766 6.09357L17.8004 10.9174L16.3532 12.3645L11.5294 7.54072Z" fill="#00AEEF"/>
<path d="M11.5293 7.54091L6.70556 2.71695L3.3291 11.8824L5.25858 13.8117L11.5293 7.54091Z" fill="#91DCF5"/>
<path d="M5.25867 13.8117L7.18798 15.7412L16.3534 12.3647L11.5294 7.54089L5.25867 13.8117Z" fill="#83D8F4"/>
<path d="M3.32918 11.8824L1.39954 13.8117C0.333781 14.8773 0.333781 16.6052 1.39954 17.6708L5.25867 13.8117L3.32918 11.8824Z" fill="#FF633B"/>
<path d="M1.39954 17.6708C2.46512 18.7366 4.19308 18.7366 5.25867 17.6708L5.741 17.1885L7.18798 15.7411L5.25867 13.8116L1.39954 17.6708Z" fill="#FF5023"/>
</g>
<defs>
<clipPath id="clip0">
<rect width="20" height="20" fill="white"/>
</clipPath>
</defs>
</svg>
