<svg width="16" height="16" viewBox="0 0 16 16" fill="none" xmlns="http://www.w3.org/2000/svg">
<g clip-path="url(#clip0)">
<path d="M2.24463 9.09373L1.26404 9.60741C1.10437 9.69103 1.00427 9.85643 1.00427 10.0367V10.6919H2.61389V9.31712C2.61389 9.12767 2.4126 9.00584 2.24463 9.09373Z" fill="#BBB0BA"/>
<path d="M2.24463 9.09373L2.00928 9.21702C2.02234 9.2473 2.02979 9.28099 2.02979 9.31712V10.6919H2.61389V9.31712C2.61389 9.12767 2.4126 9.00584 2.24463 9.09373Z" fill="#AB9FAA"/>
<path d="M4.57947 9.09373L3.59888 9.60741C3.43909 9.69103 3.33899 9.85643 3.33899 10.0367V10.6919H4.94861V9.31712C4.94861 9.12767 4.74731 9.00584 4.57947 9.09373Z" fill="#BBB0BA"/>
<path d="M4.57947 9.09373L4.34412 9.21702C4.35706 9.2473 4.3645 9.28099 4.3645 9.31712V10.6919H4.94861V9.31712C4.94861 9.12767 4.74731 9.00584 4.57947 9.09373Z" fill="#AB9FAA"/>
<path d="M12.6207 1.80029C12.369 1.80029 12.1388 1.89221 11.9618 2.04443C11.8937 2.10303 11.7946 2.10303 11.7263 2.04443C11.5493 1.89221 11.3191 1.80029 11.0674 1.80029C10.7178 1.80029 10.4095 1.97766 10.2278 2.24731C10.182 2.31531 10.0944 2.3407 10.0179 2.31104C9.90442 2.26685 9.78113 2.24268 9.65198 2.24268C9.09326 2.24268 8.64026 2.69568 8.64026 3.25439C8.64026 3.81323 9.09326 4.26624 9.65198 4.26624C9.80481 4.26624 9.94958 4.2323 10.0795 4.17163C10.1523 4.13757 10.2389 4.15625 10.2905 4.21802C10.4761 4.44031 10.7551 4.58179 11.0674 4.58179C11.2089 4.58179 11.3435 4.55273 11.4658 4.50024C11.5552 4.46191 11.6582 4.50171 11.6982 4.59045C11.8567 4.94202 12.2101 5.18689 12.6207 5.18689C13.1796 5.18689 13.6326 4.73389 13.6326 4.17505V2.81213C13.6326 2.2533 13.1796 1.80029 12.6207 1.80029Z" fill="#D9EDFF"/>
<path d="M7.9967 1.80029C7.8772 1.80029 7.7627 1.82104 7.65625 1.85913C7.57104 1.88965 7.47583 1.84766 7.44104 1.76404C7.28882 1.39795 6.92786 1.1405 6.50671 1.1405C6.08545 1.1405 5.72449 1.39795 5.57227 1.76404C5.53748 1.84766 5.44226 1.88977 5.35706 1.85913C5.25061 1.82104 5.13611 1.80029 5.0166 1.80029C4.67249 1.80029 4.36877 1.97217 4.18591 2.23462C4.14172 2.2981 4.06226 2.3241 3.98914 2.29858C3.88513 2.26233 3.77344 2.24268 3.6571 2.24268C3.09827 2.24268 2.64526 2.69568 2.64526 3.25439C2.64526 3.81323 3.09827 4.26624 3.6571 4.26624C3.79797 4.26624 3.93201 4.23743 4.05371 4.18542C4.12256 4.15601 4.203 4.17603 4.25208 4.23254C4.43762 4.44641 4.71118 4.58179 5.0166 4.58179C5.43787 4.58179 5.79883 4.32434 5.95105 3.95813C5.98572 3.87463 6.08105 3.83252 6.16626 3.86304C6.27258 3.90112 6.38721 3.922 6.50671 3.922C6.59595 3.922 6.68262 3.9104 6.76501 3.88867C6.87598 3.85938 6.98499 3.94104 6.98499 4.05579V4.17505C6.98499 4.73389 7.43799 5.18689 7.99683 5.18689C8.55554 5.18689 9.00854 4.73389 9.00854 4.17505V2.81213C9.00854 2.2533 8.55554 1.80029 7.9967 1.80029Z" fill="#D9EDFF"/>
<path d="M13.2421 2.01379V3.37378C13.2421 3.9325 12.7891 4.3855 12.2302 4.3855C11.8196 4.3855 11.4662 4.14075 11.3077 3.78906C11.2677 3.70044 11.1647 3.66052 11.0753 3.69885C10.953 3.75134 10.8184 3.7804 10.6769 3.7804C10.3647 3.7804 10.0856 3.63892 9.90002 3.41663C9.84839 3.35486 9.76184 3.33618 9.68896 3.37024C9.5592 3.43091 9.41431 3.46497 9.2616 3.46497C9.02734 3.46497 8.81177 3.38513 8.64026 3.25146V3.25439C8.64026 3.81323 9.09326 4.26624 9.6521 4.26624C9.80481 4.26624 9.94958 4.2323 10.0795 4.17163C10.1523 4.13757 10.2389 4.15625 10.2905 4.21802C10.4761 4.44031 10.7551 4.58179 11.0674 4.58179C11.2089 4.58179 11.3435 4.55273 11.4658 4.50024C11.5552 4.46191 11.6582 4.50171 11.6982 4.59045C11.8567 4.94202 12.2101 5.18689 12.6207 5.18689C13.1796 5.18689 13.6326 4.73389 13.6326 4.17505V2.81213C13.6326 2.48755 13.4796 2.19897 13.2421 2.01379Z" fill="#B4DBFF"/>
<path d="M8.61804 2.01379V2.81165C8.61804 3.37048 8.16504 3.82349 7.6062 3.82349C7.04749 3.82349 6.59448 3.37048 6.59448 2.81165V2.69238C6.59448 2.57764 6.48547 2.49597 6.37451 2.52527C6.29211 2.547 6.20544 2.55859 6.11621 2.55859C5.9967 2.55859 5.88208 2.53784 5.77563 2.49963C5.69055 2.46912 5.59521 2.51123 5.56042 2.59473C5.4082 2.96082 5.04736 3.21838 4.6261 3.21838C4.32068 3.21838 4.047 3.08301 3.86157 2.86914C3.8125 2.81262 3.73206 2.7926 3.66321 2.82202C3.5415 2.87402 3.40747 2.90283 3.2666 2.90283C3.08521 2.90283 2.91516 2.85486 2.76794 2.77124C2.6897 2.91479 2.64526 3.07947 2.64526 3.25439C2.64526 3.81323 3.09827 4.26624 3.6571 4.26624C3.79797 4.26624 3.93201 4.23743 4.05371 4.18542C4.12256 4.15601 4.203 4.17603 4.25208 4.23254C4.43762 4.44641 4.71118 4.58179 5.0166 4.58179C5.43787 4.58179 5.79883 4.32434 5.95105 3.95813C5.98572 3.87463 6.08105 3.83252 6.16626 3.86304C6.27258 3.90112 6.38721 3.922 6.50671 3.922C6.59595 3.922 6.68262 3.9104 6.76501 3.88867C6.87598 3.85938 6.98499 3.94104 6.98499 4.05579V4.17505C6.98499 4.73389 7.43799 5.18689 7.99683 5.18689C8.55554 5.18689 9.00854 4.73389 9.00854 4.17505V2.81213C9.00854 2.48755 8.85559 2.19897 8.61804 2.01379Z" fill="#B4DBFF"/>
<path d="M9.64258 11.1134H6.37671L6.76111 5.17139C6.77319 5.00842 6.90906 4.88232 7.07239 4.88232H8.94678C9.11023 4.88232 9.24597 5.00842 9.25818 5.17139L9.64258 11.1134Z" fill="#BBB0BA"/>
<path d="M14.261 11.1134H10.9951L11.3795 5.17139C11.3916 5.00842 11.5275 4.88232 11.6909 4.88232H13.5652C13.7286 4.88232 13.8644 5.00842 13.8766 5.17139L14.261 11.1134Z" fill="#BBB0BA"/>
<path d="M9.25818 5.17139C9.24597 5.00842 9.11023 4.88232 8.94678 4.88232H7.8877C8.05115 4.88232 8.18701 5.00842 8.1991 5.17139L8.5835 11.1134H9.64246L9.25818 5.17139Z" fill="#AB9FAA"/>
<path d="M13.8766 5.17139C13.8645 5.00842 13.7286 4.88232 13.5652 4.88232H12.5062C12.6697 4.88232 12.8054 5.00842 12.8176 5.17139L13.202 11.1134H14.261L13.8766 5.17139Z" fill="#AB9FAA"/>
<path d="M15.516 14.8733H0.484009C0.345947 14.8733 0.234131 14.7615 0.234131 14.6235V10.651C0.234131 10.5129 0.346069 10.4012 0.484009 10.4012H15.516C15.6541 10.4012 15.7659 10.5131 15.7659 10.651V14.6235C15.7659 14.7615 15.6541 14.8733 15.516 14.8733Z" fill="#8C808A"/>
<path d="M15.516 10.4011H13.6748V13.6813C13.6748 13.8193 13.563 13.9312 13.425 13.9312H0.234131V14.6234C0.234131 14.7615 0.346069 14.8733 0.484009 14.8733H15.516C15.6541 14.8733 15.7659 14.7614 15.7659 14.6234V10.651C15.7659 10.5129 15.6541 10.4011 15.516 10.4011Z" fill="#7A6D79"/>
<path d="M2.8175 13.3809H1.28113C1.14551 13.3809 1.03552 13.2709 1.03552 13.1351V12.6534C1.03552 12.5177 1.14551 12.4077 1.28113 12.4077H2.8175C2.95325 12.4077 3.06323 12.5177 3.06323 12.6534V13.1353C3.06323 13.2709 2.95325 13.3809 2.8175 13.3809Z" fill="#D9EDFF"/>
<path d="M5.6405 13.3809H4.10413C3.96838 13.3809 3.8584 13.2709 3.8584 13.1351V12.6534C3.8584 12.5177 3.96838 12.4077 4.10413 12.4077H5.6405C5.77625 12.4077 5.88623 12.5177 5.88623 12.6534V13.1353C5.88623 13.2709 5.77625 13.3809 5.6405 13.3809Z" fill="#D9EDFF"/>
<path d="M8.45093 13.3809H6.91455C6.77893 13.3809 6.66882 13.2709 6.66882 13.1351V12.6534C6.66882 12.5177 6.77893 12.4077 6.91455 12.4077H8.45093C8.58667 12.4077 8.69666 12.5177 8.69666 12.6534V13.1353C8.69666 13.2709 8.58667 13.3809 8.45093 13.3809Z" fill="#D9EDFF"/>
<path d="M2.81775 12.4077H2.21704C2.35266 12.4077 2.46252 12.5177 2.46252 12.6532V13.1354C2.46252 13.271 2.35266 13.3809 2.21704 13.3809H2.81775C2.95337 13.3809 3.06323 13.271 3.06323 13.1354V12.6532C3.06323 12.5177 2.95337 12.4077 2.81775 12.4077Z" fill="#B4DBFF"/>
<path d="M5.64075 12.4077H5.04004C5.17554 12.4077 5.28552 12.5177 5.28552 12.6532V13.1354C5.28552 13.271 5.17554 13.3809 5.04004 13.3809H5.64075C5.77625 13.3809 5.88623 13.271 5.88623 13.1354V12.6532C5.88623 12.5177 5.77625 12.4077 5.64075 12.4077Z" fill="#B4DBFF"/>
<path d="M8.45117 12.4077H7.85046C7.98608 12.4077 8.09595 12.5177 8.09595 12.6532V13.1354C8.09595 13.271 7.98608 13.3809 7.85046 13.3809H8.45117C8.58667 13.3809 8.69666 13.271 8.69666 13.1354V12.6532C8.69666 12.5177 8.58667 12.4077 8.45117 12.4077Z" fill="#B4DBFF"/>
<path d="M15.516 10.167H14.4344L14.2113 6.71753C14.2029 6.5885 14.0924 6.49084 13.9624 6.4989C13.8334 6.50732 13.7355 6.61865 13.7439 6.7478L13.9651 10.167H11.291L11.613 5.18884C11.6161 5.14832 11.6503 5.11658 11.6909 5.11658H13.5652C13.6058 5.11658 13.64 5.14832 13.6429 5.18652L13.6823 5.79504C13.6906 5.92407 13.8016 6.02197 13.9312 6.01355C14.0602 6.00525 14.158 5.8938 14.1497 5.76477L14.1101 5.15405C14.094 4.93787 13.9509 4.75769 13.7579 4.68408C13.829 4.52527 13.8668 4.35217 13.8668 4.17505V2.81201C13.8668 2.125 13.3079 1.56604 12.6207 1.56604C12.3381 1.56604 12.0642 1.66223 11.8441 1.83789C11.624 1.66223 11.35 1.56604 11.0674 1.56604C10.6682 1.56604 10.2955 1.75635 10.061 2.07739C9.92969 2.03162 9.79236 2.00842 9.6521 2.00842C9.4425 2.00842 9.23865 2.06091 9.0575 2.1593C8.83789 1.80371 8.44458 1.56604 7.9967 1.56604C7.8728 1.56604 7.75085 1.58423 7.6333 1.62012C7.42786 1.18445 6.99182 0.90625 6.50659 0.90625C6.02136 0.90625 5.58545 1.18457 5.37988 1.62012C5.26245 1.58423 5.14038 1.56604 5.01648 1.56604C4.62488 1.56604 4.25635 1.75085 4.02136 2.06274C3.84546 2.00891 3.65613 1.99487 3.47437 2.02173C3.34644 2.04065 3.25793 2.15967 3.27673 2.2876C3.29565 2.41553 3.41455 2.50403 3.5426 2.48511C3.66553 2.46704 3.79431 2.47876 3.91211 2.51965C4.08301 2.57922 4.27466 2.51697 4.37805 2.36841C4.52368 2.1593 4.76233 2.03442 5.01648 2.03442C5.10632 2.03442 5.19434 2.04968 5.27795 2.07959C5.48132 2.15247 5.70557 2.05334 5.78845 1.854C5.90955 1.56274 6.19141 1.37463 6.50659 1.37463C6.82178 1.37463 7.10376 1.56274 7.22485 1.854C7.30762 2.05334 7.53198 2.15247 7.73523 2.07959C7.81897 2.04968 7.90698 2.03442 7.9967 2.03442C8.42554 2.03442 8.77429 2.3833 8.77429 2.81201V4.17505C8.77429 4.34705 8.71729 4.51282 8.61328 4.64819H7.37976C7.27563 4.51294 7.21912 4.34814 7.21912 4.17505V4.05579C7.21912 3.92859 7.16138 3.81116 7.06067 3.73364C6.95923 3.6554 6.82959 3.62939 6.70532 3.66223C6.55518 3.70178 6.39172 3.69507 6.24524 3.64258C6.04199 3.5697 5.81763 3.66882 5.73474 3.86816C5.61365 4.15942 5.33179 4.34753 5.0166 4.34753C4.79114 4.34753 4.57703 4.24963 4.42896 4.07898C4.31213 3.94434 4.12427 3.90051 3.96179 3.96997C3.86536 4.01111 3.76282 4.03198 3.6571 4.03198C3.22827 4.03198 2.87952 3.68323 2.87952 3.25439C2.87952 3.15979 2.89624 3.06738 2.9292 2.97998C2.97485 2.85901 2.91382 2.72388 2.79285 2.67822C2.672 2.63245 2.53674 2.69348 2.49109 2.81458C2.43799 2.95508 2.41113 3.10315 2.41113 3.25439C2.41113 3.94153 2.96997 4.50049 3.6571 4.50049C3.81116 4.50049 3.96118 4.47266 4.10376 4.41772C4.33923 4.67139 4.66956 4.81592 5.0166 4.81592C5.50183 4.81592 5.93774 4.53772 6.14331 4.10217C6.33875 4.16187 6.55005 4.17212 6.75073 4.1322V4.17505C6.75073 4.35583 6.78931 4.53101 6.8623 4.69104C6.6781 4.7688 6.54309 4.94507 6.52734 5.15637L6.20325 10.167H5.18286V9.31714C5.18286 9.14551 5.09509 8.98999 4.94824 8.90112C4.80139 8.81213 4.6228 8.80676 4.47083 8.88635L3.49023 9.3999C3.25256 9.52441 3.10486 9.76843 3.10486 10.0367V10.167H2.84814V9.31714C2.84814 9.14551 2.76038 8.98999 2.61353 8.90112C2.46655 8.81213 2.28809 8.80664 2.13611 8.88635L1.15552 9.3999C0.917725 9.52441 0.770142 9.76843 0.770142 10.0367V10.167H0.484009C0.217041 10.167 0 10.384 0 10.651V14.6235C0 14.8904 0.217041 15.1074 0.484009 15.1074H15.516C15.783 15.1074 16 14.8904 16 14.6235V10.651C16 10.384 15.783 10.167 15.516 10.167ZM11.1458 5.15637L10.8217 10.167H9.81604L9.4917 5.15405C9.47546 4.93604 9.3302 4.75488 9.13477 4.68237C9.17188 4.59912 9.19971 4.51172 9.2179 4.422C9.35596 4.47327 9.50305 4.50049 9.6521 4.50049C9.82141 4.50049 9.98511 4.46704 10.1394 4.40125C10.376 4.66541 10.7117 4.81592 11.0674 4.81592C11.1556 4.81592 11.2424 4.80664 11.3274 4.78857C11.2251 4.88025 11.1567 5.00977 11.1458 5.15637ZM9.6521 2.47681C9.74902 2.47681 9.84351 2.49451 9.93311 2.5293C10.1135 2.59949 10.3147 2.53735 10.422 2.37817C10.567 2.16296 10.8083 2.03442 11.0674 2.03442C11.2532 2.03442 11.433 2.10107 11.5737 2.22205C11.7303 2.35669 11.9578 2.35669 12.1144 2.22205C12.2551 2.10107 12.4349 2.03442 12.6207 2.03442C13.0496 2.03442 13.3983 2.3833 13.3983 2.81213V4.17505C13.3983 4.34705 13.3412 4.51282 13.2373 4.64819H12.0046C11.968 4.60059 11.9365 4.54932 11.9117 4.49426C11.8201 4.29089 11.5786 4.19714 11.3735 4.28503C11.2767 4.32654 11.1737 4.34753 11.0674 4.34753C10.8363 4.34753 10.6187 4.24561 10.4702 4.06787C10.351 3.92493 10.1494 3.88037 9.98035 3.95947C9.8772 4.00757 9.76672 4.0321 9.6521 4.0321C9.50684 4.0321 9.36511 3.99048 9.2428 3.91479V2.81201C9.2428 2.74158 9.23657 2.67249 9.22522 2.60522C9.35132 2.52222 9.49915 2.47681 9.6521 2.47681ZM3.57324 10.0367C3.57324 9.94324 3.62463 9.85815 3.70752 9.81482L4.68811 9.30127C4.69116 9.29956 4.69702 9.29651 4.70581 9.30176C4.71448 9.30701 4.71448 9.3136 4.71448 9.31714V10.167H3.57324V10.0367ZM1.23853 10.0367C1.23853 9.94324 1.28992 9.85815 1.37268 9.81482L2.35327 9.30127C2.35645 9.29956 2.3623 9.29639 2.37097 9.30176C2.37976 9.30701 2.37976 9.3136 2.37976 9.31714V10.167H1.23853V10.0367ZM15.5316 14.6235C15.5316 14.6321 15.5247 14.6392 15.516 14.6392H0.484009C0.475342 14.6392 0.468384 14.6321 0.468384 14.6235V10.651C0.468384 10.6423 0.475342 10.6354 0.484009 10.6354H8.18665C8.31592 10.6354 8.42078 10.5305 8.42078 10.4011C8.42078 10.2719 8.31592 10.167 8.18665 10.167H6.67261L6.99463 5.18872C6.99768 5.14832 7.03186 5.11658 7.07251 5.11658H8.94678C8.98743 5.11658 9.02161 5.14832 9.02441 5.18652L9.34668 10.167H9.20667C9.07727 10.167 8.97241 10.2719 8.97241 10.4011C8.97241 10.5305 9.07727 10.6354 9.20667 10.6354H15.516C15.5247 10.6354 15.5316 10.6423 15.5316 10.651V14.6235Z" fill="black"/>
<path d="M2.81775 12.1736H1.28101C1.01648 12.1736 0.801392 12.3888 0.801392 12.6532V13.1354C0.801392 13.3999 1.01648 13.6151 1.28101 13.6151H2.81775C3.08228 13.6151 3.29736 13.3999 3.29736 13.1354V12.6532C3.29736 12.3888 3.08228 12.1736 2.81775 12.1736ZM2.8291 13.1354C2.8291 13.1416 2.82397 13.1467 2.81775 13.1467H1.28101C1.27478 13.1467 1.26965 13.1416 1.26965 13.1354V12.6532C1.26965 12.647 1.27478 12.642 1.28101 12.642H2.81775C2.82397 12.642 2.8291 12.647 2.8291 12.6532V13.1354Z" fill="black"/>
<path d="M5.64075 12.1736H4.10388C3.83936 12.1736 3.62427 12.3888 3.62427 12.6532V13.1354C3.62427 13.3999 3.83948 13.6151 4.10388 13.6151H5.64075C5.90527 13.6151 6.12036 13.3999 6.12036 13.1354V12.6532C6.12036 12.3888 5.90527 12.1736 5.64075 12.1736ZM5.65198 13.1354C5.65198 13.1416 5.64697 13.1467 5.64075 13.1467H4.10388C4.09766 13.1467 4.09265 13.1416 4.09265 13.1354V12.6532C4.09265 12.647 4.09766 12.642 4.10388 12.642H5.64075C5.64697 12.642 5.65198 12.647 5.65198 12.6532V13.1354Z" fill="black"/>
<path d="M8.45117 12.1736H6.91443C6.6499 12.1736 6.43469 12.3888 6.43469 12.6532V13.1354C6.43469 13.3999 6.6499 13.6151 6.91443 13.6151H8.45117C8.7157 13.6151 8.93079 13.3999 8.93079 13.1354V12.6532C8.93079 12.3888 8.71558 12.1736 8.45117 12.1736ZM8.46252 13.1354C8.46252 13.1416 8.4574 13.1467 8.45117 13.1467H6.91443C6.9082 13.1467 6.90308 13.1416 6.90308 13.1354V12.6532C6.90308 12.647 6.9082 12.642 6.91443 12.642H8.45117C8.4574 12.642 8.46252 12.647 8.46252 12.6532V13.1354Z" fill="black"/>
</g>
<defs>
<clipPath id="clip0">
<rect width="16" height="16" fill="white"/>
</clipPath>
</defs>
</svg>
