<svg width="20" height="20" viewBox="0 0 20 20" fill="none" xmlns="http://www.w3.org/2000/svg">
<path d="M15.8621 1.3793V2.75861H13.4483V1.3793H5.17241V2.75861H2.75862V1.3793H0V5.17241H18.6207V1.3793H15.8621Z" fill="#F05565"/>
<path d="M2.75862 5.17242H0V20H18.6207V5.17242H15.8621H13.4483H5.17241H2.75862Z" fill="#EFEBDE"/>
<path d="M12.7587 7.58621H12.069H9.65522H8.96556H6.55177H5.86212H2.75867V10.6897V11.3793V13.7931V14.4828V17.5862H5.86212H6.55177H8.96556H9.65522H12.069H12.7587H15.8621V14.4828V13.7931V11.3793V10.6897V7.58621H12.7587ZM9.65522 8.27587H12.069V10.6897H9.65522V8.27587ZM12.069 13.7931H9.65522V11.3793H12.069V13.7931ZM6.55177 11.3793H8.96556V13.7931H6.55177V11.3793ZM6.55177 8.27587H8.96556V10.6897H6.55177V8.27587ZM3.44832 8.27587H5.86212V10.6897H3.44832V8.27587ZM3.44832 11.3793H5.86212V13.7931H3.44832V11.3793ZM5.86212 16.8966H3.44832V14.4828H5.86212V16.8966ZM8.96556 16.8966H6.55177V14.4828H8.96556V16.8966ZM12.069 16.8966H9.65522V14.4828H12.069V16.8966ZM15.1725 16.8966H12.7587V14.4828H15.1725V16.8966ZM15.1725 13.7931H12.7587V11.3793H15.1725V13.7931ZM12.7587 10.6897V8.27587H15.1725V10.6897H12.7587Z" fill="#D5D0BB"/>
<path d="M5.17246 0H2.75867V2.75862H5.17246V0Z" fill="#36495E"/>
<path d="M15.862 0H13.4482V2.75862H15.862V0Z" fill="#36495E"/>
<path d="M8.96555 11.3793H6.55176V13.7931H8.96555V11.3793Z" fill="#7F6E5D"/>
<path d="M15.8621 19.6552C18.1474 19.6552 20 17.8026 20 15.5172C20 13.2319 18.1474 11.3793 15.8621 11.3793C13.5767 11.3793 11.7241 13.2319 11.7241 15.5172C11.7241 17.8026 13.5767 19.6552 15.8621 19.6552Z" fill="#71C386"/>
<path d="M17.931 15.1724H16.2069V13.4483C16.2069 13.2579 16.0524 13.1035 15.862 13.1035C15.6717 13.1035 15.5172 13.2579 15.5172 13.4483V15.1724H13.7931C13.6027 15.1724 13.4482 15.3269 13.4482 15.5172C13.4482 15.7076 13.6027 15.8621 13.7931 15.8621H15.5172V17.5862C15.5172 17.7766 15.6717 17.931 15.862 17.931C16.0524 17.931 16.2069 17.7766 16.2069 17.5862V15.8621H17.931C18.1213 15.8621 18.2758 15.7076 18.2758 15.5172C18.2758 15.3269 18.1213 15.1724 17.931 15.1724Z" fill="white"/>
</svg>
