<svg width="20" height="20" viewBox="0 0 20 20" fill="none" xmlns="http://www.w3.org/2000/svg">
<path d="M19.9896 19.1676C19.9896 19.4173 19.9063 19.6254 19.7399 19.7919C19.5734 19.9168 19.4069 20 19.1571 20H0.842845C0.634748 20 0.42661 19.9167 0.260101 19.7919C0.093591 19.6254 0.010376 19.4173 0.010376 19.1676V6.97188H19.9896V19.1676Z" fill="#FFD15C"/>
<path d="M19.7399 19.7919C19.5734 19.9168 19.4069 20 19.1571 20H0.842876C0.634779 20 0.426641 19.9167 0.260132 19.7919L9.99999 11.4256L19.7399 19.7919Z" fill="#F8B64C"/>
<path d="M19.9896 6.97192L17.1592 9.01146L10.5411 13.7565C10.2081 14.0063 9.75024 14.0063 9.41726 13.7565L2.84076 9.01146L0.010376 6.97192L2.84076 4.93237L9.00103 0.520303L9.45889 0.187324C9.79187 -0.0624007 10.2497 -0.0624007 10.5827 0.187324L11.0406 0.520303L13.9958 2.6431L15.4526 3.68367L17.1592 4.93237L19.9896 6.97192Z" fill="#40596B"/>
<path d="M17.1592 3.10092V9.01142L10.5411 13.7565C10.2081 14.0062 9.75028 14.0062 9.4173 13.7565L2.84082 9.01142V1.35273C2.84082 0.89487 3.21543 0.520264 3.67329 0.520264H14.5369L17.1592 3.10092Z" fill="#F2F2F2"/>
<path d="M14.5785 2.43497C14.5785 2.80957 14.8699 3.10092 15.2445 3.10092H17.1592L14.5785 0.520264L14.5785 2.43497Z" fill="#CDD6E0"/>
<path d="M12.4559 8.88659H13.1218C12.9137 9.34445 12.5807 9.67743 12.1228 9.92716C11.6233 10.2185 10.999 10.3434 10.2498 10.3434C9.54221 10.3434 8.91784 10.2185 8.41835 9.96878C7.91886 9.71906 7.50263 9.38604 7.2529 8.88659C7.00318 8.42873 6.8783 7.88761 6.8783 7.34653C6.8783 6.7222 7.00318 6.18109 7.29453 5.63997C7.58588 5.09885 7.96049 4.72425 8.45998 4.47452C8.95947 4.2248 9.54217 4.09991 10.1665 4.09991C10.7077 4.09991 11.2071 4.2248 11.6233 4.43289C12.0396 4.64099 12.3726 4.93238 12.5807 5.34862C12.7888 5.72322 12.9137 6.18109 12.9137 6.63895C12.9137 7.18006 12.7472 7.67951 12.4142 8.13738C11.998 8.72012 11.4568 8.96984 10.7909 8.96984C10.6244 8.96984 10.4579 8.92822 10.3746 8.88659C10.2914 8.80333 10.2081 8.72008 10.2081 8.59524C9.95841 8.84496 9.66701 8.96984 9.33403 8.96984C8.95943 8.96984 8.66808 8.84496 8.45994 8.59524C8.21021 8.34551 8.08533 8.01249 8.08533 7.59626C8.08533 7.09677 8.21021 6.63891 8.50157 6.18105C8.83455 5.68156 9.29241 5.43183 9.83352 5.43183C10.2081 5.43183 10.4995 5.59834 10.7076 5.88969L10.7909 5.51509H11.665L11.1655 7.84598C11.1239 8.01249 11.1239 8.09571 11.1239 8.13734C11.1239 8.17896 11.1239 8.22059 11.1655 8.26222C11.2071 8.30385 11.2071 8.30385 11.2487 8.30385C11.332 8.30385 11.4985 8.22059 11.665 8.09575C11.8731 7.92924 12.0812 7.72114 12.2061 7.42979C12.331 7.13844 12.4142 6.84705 12.4142 6.55569C12.4142 6.01458 12.2061 5.55671 11.8314 5.22374C11.4568 4.84913 10.9157 4.68262 10.2081 4.68262C9.62539 4.68262 9.12594 4.8075 8.7097 5.05723C8.29347 5.30695 8.00212 5.63997 7.79398 6.0562C7.58584 6.47244 7.50263 6.9303 7.50263 7.42979C7.50263 7.88765 7.62751 8.30389 7.83561 8.67849C8.08533 9.0531 8.37672 9.34445 8.79296 9.51096C9.20919 9.67747 9.66705 9.76069 10.2082 9.76069C10.7077 9.76069 11.1655 9.67743 11.5401 9.55259C11.9147 9.38604 12.2061 9.17794 12.4559 8.88659ZM8.91784 7.55463C8.91784 7.84598 8.95947 8.01249 9.08435 8.17896C9.20923 8.30385 9.33407 8.38706 9.50058 8.38706C9.62547 8.38706 9.75031 8.34543 9.83356 8.30381C9.91682 8.26218 10.0001 8.17892 10.0833 8.09571C10.2082 7.97083 10.2914 7.76273 10.3746 7.51296C10.4579 7.26324 10.4995 7.01348 10.4995 6.80538C10.4995 6.55565 10.4579 6.38914 10.333 6.22263C10.2081 6.09775 10.0833 6.01454 9.91678 6.01454C9.75027 6.01454 9.54217 6.09779 9.41729 6.22263C9.25078 6.34752 9.12594 6.55561 9.04268 6.84697C8.95947 7.09677 8.91784 7.34649 8.91784 7.55463Z" fill="#FF7058"/>
</svg>
