<svg width="16" height="16" viewBox="0 0 16 16" fill="none" xmlns="http://www.w3.org/2000/svg">
<path d="M3.46672 11.3333H0.800049V15.0666H3.46672V11.3333Z" fill="#7ED09E"/>
<path d="M7.46672 8.93335H4.80005V15.0667H7.46672V8.93335Z" fill="#71C285"/>
<path d="M11.4667 6.79999H8.80005V15.0667H11.4667V6.79999Z" fill="#4FBA6F"/>
<path d="M15.4667 4.66669H12.8V15.0667H15.4667V4.66669Z" fill="#24AE5F"/>
<path d="M15.7333 15.3333H0.266667C0.119467 15.3333 0 15.2141 0 15.0667C0 14.9192 0.119467 14.8 0.266667 14.8H15.7333C15.8805 14.8 16 14.9192 16 15.0667C16 15.2141 15.8805 15.3333 15.7333 15.3333Z" fill="#556080"/>
<path d="M2.14133 7.42134C2.04906 7.42134 1.95946 7.3736 1.91013 7.288C1.83653 7.16027 1.88026 6.99734 2.00773 6.92374L12.4 0.923736C12.5275 0.849869 12.6904 0.893869 12.7643 1.02134C12.8379 1.14907 12.7941 1.312 12.6667 1.3856L2.2744 7.3856C2.23253 7.40987 2.1864 7.42134 2.14133 7.42134Z" fill="#BDC3C7"/>
<path d="M12.5336 1.42134C12.5251 1.42134 12.5165 1.42081 12.5075 1.42001L10.2243 1.19867C10.0779 1.18454 9.97041 1.05414 9.98481 0.907473C9.99895 0.761073 10.128 0.653073 10.276 0.668006L12.5592 0.889339C12.7056 0.903473 12.8131 1.03387 12.7987 1.18054C12.7853 1.31814 12.6693 1.42134 12.5336 1.42134Z" fill="#BDC3C7"/>
<path d="M11.5833 3.50931C11.5462 3.50931 11.5089 3.50185 11.4729 3.48531C11.3387 3.42425 11.2795 3.26638 11.3406 3.13225L12.2905 1.04425C12.3515 0.910115 12.5096 0.850381 12.6435 0.911981C12.7776 0.973048 12.8368 1.13091 12.7758 1.26505L11.8259 3.35305C11.7817 3.45118 11.6846 3.50931 11.5833 3.50931Z" fill="#BDC3C7"/>
</svg>
